<?xml version="1.0" standalone="no"?>
<!DOCTYPE svg PUBLIC "-//W3C//DTD SVG 20010904//EN"
 "http://www.w3.org/TR/2001/REC-SVG-20010904/DTD/svg10.dtd">
<svg version="1.0" xmlns="http://www.w3.org/2000/svg"
 width="226.000000pt" height="236.000000pt" viewBox="0 0 226.000000 236.000000"
 preserveAspectRatio="xMidYMid meet">

<g transform="translate(0.000000,236.000000) scale(0.100000,-0.100000)"
fill="#000000" stroke="none">
<path d="M0 1180 l0 -1180 1130 0 1130 0 0 1180 0 1180 -1130 0 -1130 0 0
-1180z m1157 1164 c-3 -3 -12 -4 -19 -1 -8 3 -5 6 6 6 11 1 17 -2 13 -5z m218
-63 c44 -12 98 -31 120 -41 22 -11 60 -27 85 -35 24 -9 47 -19 50 -24 3 -4 23
-18 46 -32 103 -61 246 -198 275 -265 11 -24 23 -44 27 -44 4 0 15 -20 25 -45
11 -25 22 -45 26 -45 5 0 16 -18 26 -40 10 -22 21 -40 25 -40 16 0 75 -187 85
-270 1 -8 5 -39 9 -67 13 -87 8 -249 -9 -333 -26 -130 -51 -211 -88 -285 -28
-58 -93 -169 -109 -190 -5 -5 -16 -20 -26 -31 -92 -115 -132 -151 -272 -249
-218 -153 -546 -205 -815 -130 -332 92 -585 327 -715 662 -81 212 -96 489 -36
660 8 23 12 44 9 47 -9 9 68 220 85 234 9 6 13 12 9 12 -4 0 2 15 13 33 11 17
24 42 30 55 5 12 14 22 20 22 5 0 10 6 10 13 0 18 23 47 102 128 37 38 73 69
79 69 7 0 9 3 6 6 -14 14 198 154 240 159 15 1 29 8 31 14 2 6 17 11 32 11 16
0 32 4 35 10 11 18 110 40 205 46 52 3 97 7 98 9 12 12 198 -5 267 -24z m524
-245 c7 -8 8 -17 3 -20 -6 -3 -12 3 -15 14 -6 24 -4 25 12 6z m-1536 -31 c-3
-9 -8 -14 -10 -11 -3 3 -2 9 2 15 9 16 15 13 8 -4z m1588 -37 c19 -22 19 -35
0 -23 -14 8 -34 45 -25 45 4 0 15 -10 25 -22z m-1631 -1 c0 -2 -10 -12 -22
-23 l-23 -19 19 23 c18 21 26 27 26 19z m-58 -75 c-11 -10 -22 -27 -26 -39 -7
-21 -26 -32 -26 -15 0 4 -3 17 -6 29 -5 18 0 25 27 36 41 17 57 11 31 -11z
m1748 -13 c6 -10 7 -19 2 -19 -5 0 -14 12 -20 26 -14 29 2 24 18 -7z m-1811
-65 c7 5 7 -3 0 -23 -8 -22 -16 -28 -35 -27 -26 1 -30 16 -13 47 8 16 13 18
24 9 8 -7 19 -9 24 -6z m-48 -111 c-12 -20 -14 -14 -5 12 4 9 9 14 11 11 3 -2
0 -13 -6 -23z m1969 -13 c0 -5 -2 -10 -4 -10 -3 0 -8 5 -11 10 -3 6 -1 10 4
10 6 0 11 -4 11 -10z m40 -60 c0 -5 -4 -10 -10 -10 -5 0 -10 5 -10 10 0 6 5
10 10 10 6 0 10 -4 10 -10z m20 -41 c0 -5 -4 -9 -10 -9 -5 0 -10 7 -10 16 0 8
5 12 10 9 6 -3 10 -10 10 -16z m6 -54 c-3 -8 -11 -15 -18 -15 -10 0 -10 2 0 9
7 4 12 12 11 17 -3 17 3 29 8 16 3 -7 2 -19 -1 -27z m14 -24 c0 -5 -7 -12 -16
-15 -14 -5 -15 -4 -4 9 14 17 20 19 20 6z m24 -47 c9 -22 7 -149 -1 -140 -8 8
-9 13 -11 64 -1 22 -6 31 -13 26 -8 -5 -9 -2 -2 11 6 10 8 26 6 36 -6 23 12
25 21 3z m15 -231 c1 -24 -3 -43 -7 -43 -4 0 -7 12 -7 28 1 15 -2 36 -5 47 -4
11 -5 27 -2 35 8 23 20 -17 21 -67z m-14 -93 c3 -5 1 -10 -4 -10 -6 0 -11 5
-11 10 0 6 2 10 4 10 3 0 8 -4 11 -10z m-3 -80 c-6 -43 -21 -47 -19 -5 1 19 7
35 13 35 6 0 9 -13 6 -30z m-32 -155 c0 -8 -2 -15 -4 -15 -2 0 -6 7 -10 15 -3
8 -1 15 4 15 6 0 10 -7 10 -15z m-2100 -68 c0 -16 -18 3 -23 25 -6 22 -5 22 8
4 8 -11 15 -24 15 -29z m2069 -52 c-7 -25 -17 -45 -21 -45 -12 0 -10 9 9 63
21 59 30 44 12 -18z m-38 -82 c-12 -20 -14 -14 -5 12 4 9 9 14 11 11 3 -2 0
-13 -6 -23z m-1981 -13 c6 -11 8 -20 6 -20 -3 0 -10 9 -16 20 -6 11 -8 20 -6
20 3 0 10 -9 16 -20z m30 -52 c0 -16 -3 -19 -11 -11 -6 6 -8 16 -5 22 11 17
16 13 16 -11z m1920 -2 c0 -3 -4 -8 -10 -11 -5 -3 -10 -1 -10 4 0 6 5 11 10
11 6 0 10 -2 10 -4z m-1895 -36 c3 -5 2 -10 -4 -10 -5 0 -13 5 -16 10 -3 6 -2
10 4 10 5 0 13 -4 16 -10z m1856 -13 c-10 -9 -11 -8 -5 6 3 10 9 15 12 12 3
-3 0 -11 -7 -18z m-31 -72 c-7 -9 -15 -13 -19 -10 -3 3 1 10 9 15 21 14 24 12
10 -5z m-45 -55 c-10 -11 -20 -18 -23 -16 -5 6 21 35 32 36 5 0 1 -9 -9 -20z
m-75 -84 c0 -2 -7 -9 -15 -16 -13 -11 -14 -10 -9 4 5 14 24 23 24 12z m-225
-176 c3 -5 -1 -10 -10 -10 -9 0 -13 5 -10 10 3 6 8 10 10 10 2 0 7 -4 10 -10z
m-90 -50 c-3 -5 -12 -10 -18 -10 -7 0 -6 4 3 10 19 12 23 12 15 0z m-805 -60
c0 -5 -5 -10 -11 -10 -5 0 -7 5 -4 10 3 6 8 10 11 10 2 0 4 -4 4 -10z"/>
<path d="M862 1962 c-7 -5 -15 -24 -16 -43 -2 -19 -6 -44 -10 -56 -4 -12 -2
-24 4 -28 5 -3 10 -18 10 -33 0 -16 8 -34 20 -42 11 -8 20 -20 20 -28 0 -7 18
-30 39 -51 41 -40 98 -66 139 -63 27 2 27 -2 2 -36 -16 -23 -18 -33 -10 -67 7
-29 6 -52 -5 -85 -8 -25 -14 -74 -14 -110 0 -114 -2 -122 -36 -127 -16 -3 -39
-4 -50 -3 -82 7 -192 -11 -180 -30 2 -4 -5 -34 -16 -66 -18 -50 -32 -190 -29
-274 0 -8 1 -37 1 -65 1 -27 5 -54 9 -60 4 -5 6 -34 5 -63 -2 -37 2 -55 11
-59 10 -4 11 -9 1 -24 -10 -16 -9 -21 1 -28 8 -4 13 -11 13 -15 -1 -3 -1 -10
-1 -14 0 -15 72 -31 145 -33 39 -1 73 -7 77 -13 5 -8 8 -7 8 2 0 6 7 12 15 12
8 0 15 -5 15 -11 0 -8 5 -8 15 1 12 10 18 10 30 0 8 -7 15 -8 15 -3 0 15 72 8
108 -9 27 -14 30 -14 25 -1 -5 13 -2 13 15 4 28 -15 42 -14 42 4 0 8 3 15 8
15 4 0 8 10 9 23 7 104 11 146 17 155 6 9 10 33 21 123 1 15 6 37 10 49 4 12
9 34 10 49 2 14 7 44 10 66 4 22 8 66 10 97 2 31 6 61 9 67 13 20 -8 41 -56
57 -27 9 -52 14 -55 11 -3 -3 -17 -1 -31 4 -29 11 -89 20 -145 23 -20 0 -37 2
-37 2 0 1 6 20 14 42 14 38 15 130 2 151 -3 5 0 26 8 48 14 39 14 82 1 103 -9
14 13 77 28 83 7 2 31 2 55 1 23 -2 42 0 42 4 0 5 14 9 32 10 17 0 34 5 37 10
8 12 43 26 59 23 6 -1 12 3 12 9 0 5 6 10 13 10 15 1 67 46 67 59 0 6 6 14 14
18 14 9 43 94 44 130 1 35 -48 40 -109 9 -18 -9 -38 -16 -46 -16 -7 0 -16 -7
-19 -15 -4 -8 -12 -15 -19 -15 -19 0 -29 -20 -17 -32 7 -7 19 -4 38 11 15 11
31 21 36 21 5 0 16 7 24 15 9 8 26 15 39 15 13 0 30 3 39 6 14 5 14 2 1 -35
-8 -23 -21 -49 -30 -57 -8 -9 -15 -22 -15 -30 0 -8 -7 -14 -16 -14 -9 0 -25
-9 -34 -20 -10 -12 -22 -19 -28 -18 -5 2 -19 -8 -30 -20 -12 -13 -25 -21 -30
-18 -6 3 -13 -1 -16 -10 -3 -8 -11 -12 -16 -9 -7 4 -2 14 12 26 13 10 29 23
36 29 6 6 12 20 12 32 0 22 0 22 -19 2 -10 -10 -28 -26 -41 -34 -12 -8 -28
-20 -34 -26 -6 -6 -19 -11 -29 -11 -27 0 -12 30 44 89 30 32 46 55 40 61 -10
10 -71 -30 -71 -47 0 -6 -12 -24 -27 -40 l-26 -28 -18 23 c-26 34 -44 8 -23
-33 15 -28 12 -48 -7 -48 -5 0 -9 6 -9 13 0 14 -44 67 -56 67 -5 0 -18 11 -30
26 -31 35 -42 12 -12 -26 13 -16 29 -29 36 -29 7 -1 11 -5 8 -10 -4 -5 0 -12
6 -14 8 -4 9 -6 2 -6 -20 -2 -78 27 -104 51 -15 13 -27 36 -28 52 -1 17 -7 33
-13 37 -6 4 -13 34 -15 68 -3 50 -1 61 12 61 14 0 154 -131 154 -144 0 -13 41
-46 50 -41 18 11 10 24 -77 113 -85 88 -124 111 -151 94z m148 -812 c14 -5 43
-9 65 -8 22 0 67 -5 100 -12 33 -6 69 -13 80 -14 11 -1 37 -6 57 -10 37 -8 37
-9 34 -50 -3 -22 -9 -54 -15 -69 -6 -16 -9 -32 -6 -37 3 -4 -2 -27 -11 -51
-13 -40 -18 -64 -29 -151 -1 -14 -8 -43 -15 -63 -7 -20 -10 -39 -7 -41 9 -10
-25 -96 -47 -118 -18 -18 -34 -21 -104 -22 -60 -1 -85 3 -94 13 -7 9 -8 17 -2
21 5 4 9 13 10 20 2 29 5 31 32 26 30 -6 33 2 31 96 0 56 -9 65 -61 65 -45 0
-42 -6 -50 88 -2 24 -7 36 -15 33 -7 -3 -36 3 -65 13 -62 20 -108 15 -118 -14
-6 -15 -8 -11 -8 15 0 19 -1 40 -2 45 -6 29 1 33 30 19 27 -14 32 -14 47 2 17
16 18 16 21 1 2 -9 10 -17 19 -17 10 0 14 6 10 20 -3 13 1 23 11 29 21 11 57
-1 58 -20 0 -8 2 -22 2 -31 1 -10 9 -18 18 -18 12 0 15 6 11 23 -4 12 -2 29 3
37 5 8 5 21 -1 33 -6 10 -11 30 -13 45 -1 20 -7 27 -21 25 -11 -1 -23 3 -26 9
-4 5 -36 12 -73 14 -54 3 -66 1 -66 -11 0 -8 7 -16 15 -16 46 -4 49 -9 34 -58
-13 -45 -34 -53 -45 -19 -3 12 -13 28 -20 35 -10 10 -11 20 -3 41 6 15 11 40
12 57 2 29 4 30 50 31 26 1 51 4 54 8 7 7 77 -2 113 -14z m-104 -115 c-9 -9
-16 -24 -16 -32 0 -9 -3 -14 -6 -10 -3 3 -1 22 6 42 8 25 15 34 22 27 7 -7 6
-16 -6 -27z m58 -24 c-2 -2 -10 -1 -19 3 -13 5 -14 8 -3 20 11 12 14 12 19 -3
4 -9 5 -18 3 -20z m-184 -31 c0 -5 -5 -10 -11 -10 -5 0 -7 5 -4 10 3 6 8 10
11 10 2 0 4 -4 4 -10z m60 -130 c0 -5 5 -10 11 -10 5 0 8 4 5 8 -3 5 8 9 24 9
21 0 30 -5 30 -16 0 -14 2 -14 11 -1 9 12 10 11 6 -7 -3 -12 0 -24 7 -26 15
-6 19 -57 4 -57 -6 0 -8 -3 -5 -6 3 -4 1 -16 -5 -28 -11 -20 -10 -20 8 -6 18
14 18 14 3 -10 -9 -14 -19 -24 -23 -22 -3 1 -14 2 -23 2 -14 0 -13 4 5 23 12
13 20 26 16 29 -3 4 -1 17 6 30 9 19 9 21 -2 8 -7 -8 -19 -16 -27 -18 -12 -3
-12 -1 0 14 13 16 12 17 -5 7 -20 -11 -59 -6 -51 7 3 5 15 6 27 2 14 -3 19 -2
14 6 -4 7 -1 12 6 12 10 0 10 2 -1 9 -8 5 -10 14 -6 21 6 9 4 11 -6 4 -8 -5
-21 -9 -29 -9 -8 0 -14 -7 -12 -17 1 -9 -2 -19 -8 -23 -5 -3 -11 -1 -11 4 -1
6 -2 17 -3 24 -3 17 13 47 24 47 6 0 10 -4 10 -10z m-14 -139 c-6 -15 -5 -15
6 0 9 11 20 14 33 9 11 -4 27 -3 35 3 8 5 1 -4 -17 -21 -17 -17 -29 -33 -26
-36 4 -3 1 -6 -5 -6 -7 0 -11 -3 -11 -7 3 -21 -3 -28 -25 -28 -18 0 -22 3 -14
13 6 6 7 12 2 12 -5 0 -2 5 6 10 9 6 11 10 3 10 -7 0 -10 7 -7 15 4 8 1 15 -5
15 -9 0 -9 5 -1 20 13 24 34 16 26 -9z m220 11 c17 -11 26 -47 18 -77 -5 -22
-11 -25 -30 -21 -20 5 -24 3 -24 -16 0 -44 -12 -66 -36 -71 -14 -2 -27 0 -30
4 -3 5 -16 9 -29 9 -25 0 -35 17 -35 60 0 31 14 40 51 33 20 -4 28 1 37 22 7
14 12 32 12 40 0 7 10 16 23 18 12 2 24 5 27 5 3 1 10 -2 16 -6z m-195 -134
c1 -5 2 -14 3 -20 1 -18 27 -43 45 -44 48 -3 51 -7 11 -14 -49 -8 -117 11
-105 30 3 6 0 13 -8 16 -27 10 -8 41 24 40 16 -1 30 -4 30 -8z m149 -78 c0 -5
-2 -10 -4 -10 -3 0 -8 5 -11 10 -3 6 -1 10 4 10 6 0 11 -4 11 -10z"/>
<path d="M1027 1052 c-3 -4 -3 -32 -2 -64 3 -71 28 -104 68 -89 16 6 27 20 32
40 4 17 10 31 15 31 4 0 13 14 19 31 14 40 14 39 -3 39 -7 0 -19 -13 -26 -30
-7 -16 -16 -30 -20 -30 -5 0 -11 -13 -15 -30 -14 -62 -46 -24 -39 47 4 39 1
52 -10 56 -9 4 -17 3 -19 -1z"/>
<path d="M1208 1015 c-50 -53 -68 -83 -68 -114 0 -31 19 -25 31 8 9 25 15 29
42 28 28 -2 32 -6 35 -34 2 -21 9 -33 18 -33 13 0 21 42 15 80 -2 8 -3 26 -3
39 0 25 -19 51 -37 51 -5 0 -20 -11 -33 -25z m35 -29 c3 -8 -2 -16 -14 -19
-11 -3 -19 0 -19 7 0 26 24 35 33 12z"/>
<path d="M935 581 c-3 -5 -1 -12 5 -16 12 -7 30 2 30 16 0 12 -27 12 -35 0z"/>
<path d="M309 1513 c-1 -10 -2 -32 -2 -50 -1 -18 -7 -35 -14 -37 -14 -6 -15
-2 -17 53 -1 39 -26 57 -26 19 0 -13 -1 -57 -2 -99 0 -42 2 -84 5 -93 12 -31
26 -16 22 24 -2 26 1 45 11 55 9 8 17 15 19 15 2 0 2 -27 1 -60 -2 -40 1 -61
10 -64 18 -7 20 7 20 133 -1 82 -5 116 -13 118 -7 3 -13 -4 -14 -14z"/>
<path d="M1355 1518 c-2 -7 -18 -50 -34 -94 -16 -45 -27 -85 -24 -88 12 -12
21 -5 32 24 11 33 31 38 55 15 8 -8 20 -15 26 -15 19 0 5 24 -27 45 l-30 21
18 52 c15 44 16 52 3 52 -8 0 -17 -6 -19 -12z"/>
<path d="M1482 1498 c-6 -18 -10 -40 -11 -48 0 -8 -2 -40 -4 -69 l-4 -55 -51
0 c-31 0 -53 -5 -56 -12 -6 -16 14 -23 39 -14 23 8 55 2 55 -11 0 -5 -4 -9 -8
-9 -5 0 -14 -17 -20 -37 -16 -53 -2 -65 61 -51 28 7 47 17 47 25 0 9 -7 12
-17 10 -70 -19 -73 -19 -63 9 6 14 17 32 25 41 8 8 14 27 13 41 -3 44 11 70
44 81 33 12 30 26 -5 26 -18 0 -22 6 -22 30 1 17 4 40 9 53 5 16 4 22 -8 22
-8 0 -19 -15 -24 -32z"/>
<path d="M485 1500 c-7 -23 -21 -26 -28 -7 -3 9 -8 9 -17 1 -9 -9 -9 -17 -1
-32 16 -30 3 -54 -28 -50 -24 3 -26 6 -24 51 2 39 -1 47 -15 47 -16 0 -17 -10
-15 -92 2 -86 12 -116 34 -102 4 2 21 6 39 8 17 2 33 6 36 9 3 3 6 35 6 71 1
36 4 66 8 66 3 0 5 -24 4 -52 -2 -67 4 -88 23 -88 11 0 14 6 9 25 -5 21 -3 25
15 25 12 0 19 5 16 13 -2 6 -11 11 -19 9 -10 -1 -16 6 -17 23 -1 14 -2 31 -3
38 -1 6 2 22 6 35 5 16 3 22 -8 22 -8 0 -18 -9 -21 -20z m-47 -122 c16 -16 15
-31 -1 -25 -8 3 -20 1 -28 -3 -8 -6 -16 -4 -21 3 -14 22 -10 27 33 36 3 0 10
-4 17 -11z"/>
<path d="M720 1480 c0 -13 23 -25 42 -22 26 5 32 -17 9 -37 -26 -23 -18 -55
10 -46 15 5 17 3 12 -12 -4 -10 -17 -27 -30 -38 -28 -25 -32 -61 -5 -50 9 4
26 9 37 11 11 2 36 6 55 9 19 4 43 8 52 9 26 3 34 16 19 26 -8 5 -25 4 -40 -2
-27 -10 -81 -19 -81 -14 0 2 7 17 15 32 19 37 19 54 0 54 -16 0 -21 16 -6 22
4 2 11 13 15 24 5 15 1 24 -11 29 -26 11 -93 14 -93 5z"/>
<path d="M147 1472 c-9 -2 -17 -10 -17 -17 0 -10 10 -13 36 -10 21 3 33 1 29
-5 -3 -5 -8 -24 -10 -42 -2 -18 -6 -52 -9 -75 -4 -33 -2 -43 8 -43 10 0 16 19
21 63 4 34 11 72 16 84 17 45 -4 58 -74 45z"/>
<path d="M664 1455 c-3 -14 -7 -49 -7 -80 -1 -56 -3 -61 -23 -47 -23 15 -33
46 -19 57 14 10 18 26 16 60 -1 16 -7 20 -28 19 -16 -1 -36 -3 -45 -3 -10 -1
-18 -8 -18 -17 0 -13 7 -15 36 -9 34 6 35 5 29 -17 -4 -13 -12 -26 -18 -29 -5
-4 -7 -11 -3 -17 3 -5 0 -12 -7 -15 -19 -7 -41 -87 -28 -100 10 -10 13 -4 37
63 4 10 7 11 12 3 4 -7 20 -16 35 -22 15 -6 28 -18 28 -28 3 -38 4 -43 14 -40
6 1 10 18 11 37 1 53 2 57 24 63 28 7 25 29 -2 25 -21 -3 -23 1 -24 37 0 22 3
47 8 57 5 10 3 18 -7 22 -10 3 -17 -3 -21 -19z"/>
<path d="M1671 1398 c-5 -13 -5 -32 -1 -43 4 -11 4 -29 0 -40 -4 -11 -6 -31
-4 -45 1 -14 3 -35 3 -47 1 -13 6 -23 11 -23 16 0 29 43 18 63 -9 17 -1 21 39
20 6 0 14 6 17 13 5 14 -5 18 -33 14 -21 -3 -29 17 -24 66 3 47 -12 60 -26 22z"/>
<path d="M1914 1353 c3 -81 -8 -110 -45 -115 -18 -3 -29 0 -29 8 0 14 28 27
40 19 5 -3 12 0 16 6 3 6 1 15 -6 19 -15 9 -50 1 -50 -11 0 -5 -7 -9 -15 -9
-15 0 -18 12 -18 78 0 20 -4 32 -13 32 -12 0 -18 -11 -16 -31 7 -67 14 -93 27
-103 13 -9 14 -17 4 -43 -9 -29 -8 -36 13 -62 26 -34 40 -37 62 -15 9 8 20 13
25 10 13 -9 40 69 29 87 -19 35 16 92 50 80 6 -3 12 3 12 12 0 12 -6 16 -19
12 -32 -8 -48 9 -45 47 2 25 -1 36 -10 36 -10 0 -13 -15 -12 -57z m-8 -146
c15 -41 -33 -79 -63 -50 -19 17 -16 28 10 46 27 20 46 21 53 4z"/>
<path d="M1566 1354 c-8 -25 -12 -53 -9 -62 8 -19 28 -42 38 -42 13 0 32 26
43 58 9 28 9 37 -3 49 -8 8 -15 18 -15 23 0 4 -9 10 -19 13 -16 4 -23 -4 -35
-39z m47 -10 c3 -3 1 -19 -5 -36 -13 -36 -32 -23 -22 16 6 25 15 32 27 20z"/>
<path d="M426 1277 c-14 -5 -26 -12 -26 -16 0 -16 13 -20 32 -10 14 8 23 8 31
0 8 -8 8 -11 -1 -11 -6 0 -9 -7 -6 -15 4 -8 1 -15 -5 -15 -6 0 -11 -12 -11
-26 0 -25 2 -26 38 -20 20 3 45 6 55 6 9 0 17 6 17 14 0 11 -10 13 -40 9 -26
-4 -40 -2 -40 6 0 6 5 11 11 11 5 0 8 4 5 8 -3 5 4 15 15 22 19 14 26 39 12
41 -29 5 -64 4 -87 -4z"/>
<path d="M2105 1280 c-3 -5 -4 -14 -1 -19 3 -5 -1 -28 -9 -51 -8 -23 -13 -46
-10 -50 3 -4 0 -22 -6 -40 -8 -23 -8 -35 -1 -42 14 -14 31 26 36 82 2 21 9 47
15 58 7 14 8 29 1 46 -10 28 -15 31 -25 16z"/>
<path d="M2005 1250 c-4 -7 1 -14 14 -17 25 -6 26 -16 6 -36 -7 -8 -17 -26
-21 -41 -5 -20 -2 -26 10 -26 9 0 16 7 16 15 0 8 4 15 10 15 10 0 36 77 29 84
-12 12 -58 16 -64 6z"/>
</g>
</svg>
